<svg xmlns="http://www.w3.org/2000/svg" height="800" width="1200" viewBox="-30.001095 -21.30205 260.00949 127.8123"><path d="M30.6049 63.8082h23.031c-2.1864-3.643-3.443-7.908-3.443-12.4653 0-18.705 15.1627-33.8663 33.869-33.8663l115.9454.535-5.9845 20.8647h-22.8742l-13.139 45.7977h-24.6143l13.1338-45.7977h-23.11c2.1863 3.644 3.4425 7.9078 3.4425 12.4669 0 18.701-15.1627 33.865-33.8676 33.865l-.6088-.0036-92.3846-.5303 19.117-66.6625H43.737zm43.8556-12.4644c0-7.7686 6.2985-14.0653 14.0666-14.0653 7.7697 0 14.0679 6.297 14.0679 14.0653 0 7.7687-6.2975 14.0666-14.068 14.0666-7.7685 0-14.0665-6.2975-14.0665-14.0666zm10.8089 2.4202l7.8395-15.7237c.9667.4716 1.617 1.502 1.617 2.6495 0 .544-.1453 1.0542-.406 1.4889l-6.7478 11.231 2.279-.3518a2.3604 2.3604 0 01.3618-.0268c1.2739 0 2.3064 1.034 2.3064 2.3078h6.3506l-.571-.7187h-1.1614l-.2556-.3517h3.3758c.3643.6073 1.0121 1.0263 1.7611 1.0704l-.1087.3517H87.6323l5.9052 4.5312c.6555.502 1.0664 1.3032 1.0664 2.1925 0 .7657-.3047 1.4712-.8062 1.9737l-8.8512-8.6974h-9.8008l-.1088-.3517 10.232-1.5755M31.3745.0013h1.8767L30.6685 9.009h-1.8771zm95.9267 1.5007l.4317-1.5007h-4.3145c-1.1832 0-2.408.5675-2.7522 1.7665l-.4084 1.4281c-.2809.9799.2794 1.8726 1.6803 1.8726h2.1039c.3 0 .716.1675.4792.9884l-.1022.3619c-.1908.662-.782 1.0896-1.3245 1.0896h-4.0706l-.4302 1.5006h4.517c1.1894 0 2.5726-.4646 3.0266-2.042l.3188-1.11c.452-1.5715-.6706-2.2901-1.7512-2.2901h-1.9824c-.2798 0-.673-.0694-.5137-.6275l.1504-.5238c.2024-.7102.587-.9136 1.121-.9136zM95.3783 0h1.8768l-2.5838 9.009h-1.8766zM72.5961 0h1.8776L71.89 9.009h-1.8761zm15.278 0h1.8762l-2.152 7.5084h4.1257l-.43 1.5006H85.29zM46.208.0013L43.6275 9.009h1.8016l1.0233-3.5644h4.5777L50.008 9.009h1.8012L54.3923.0013h-1.8008l-1.131 3.9427h-4.5788L48.0122.0013zm63.373 9.0077l2.5837-9.0077h6.3845l-.4302 1.5007h-4.6663l-.5926 2.0649 3.8757-.001-.4301 1.5015h-3.8752l-.7 2.441h4.6662l-.4311 1.5006zm-11.5315 0L100.6305 0h2.352l1.8877 6.757c.1559.5551.1559.7514.1559.7514L107.1806 0h1.6033l-2.5811 9.009h-2.4121l-1.8316-6.754c-.1315-.4883-.1447-.7976-.1447-.7976L99.6538 9.009zM42.3778 1.502L42.81.0013h-4.315c-1.1828 0-2.4076.5675-2.7517 1.7665l-.4089 1.4281c-.2814.9799.2804 1.8726 1.6808 1.8726h2.1028c.3006 0 .7172.1675.4803.9884l-.1032.3619c-.1904.662-.781 1.0896-1.324 1.0896H34.101l-.4307 1.5006h4.518c1.1894 0 2.5715-.4646 3.026-2.042l.3189-1.11c.452-1.5715-.6706-2.2901-1.7522-2.2901h-1.982c-.2798 0-.673-.0694-.5136-.6275l.151-.5238c.2028-.7102.587-.9136 1.1209-.9136zM23.8698 0h1.8762l-2.153 7.5084h4.1268l-.4302 1.5006h-6.0034zM6.5732 1.502c.5896 0 .6868.505.5932.83l-.2986 1.0415c-.245.8464-1.0112 1.1313-1.4268 1.1313H3.157l.8614-3.0028zM2.5852 0L0 9.009h1.8771l.9105-3.191h2.8427c.9211 0 2.5397-.4493 2.9293-1.8083l.4707-1.6422C9.5313.6206 8.0165 0 7.351 0zm75.097.0013h4.7665c.6655 0 2.1772.618 1.6787 2.3652l-.29 1.0121c-.4068 1.4222-2.1428 1.5624-2.1428 1.5624 1.3817.5703 1.4297.9059 1.2561 2.1914-.172 1.2855.0117 1.8068.0902 1.8766h-1.7031s-.3492-.4848-.1088-1.745c.287-1.5148-.1634-1.6256-.582-1.6337h-2.7118l-.9615 3.3787h-1.8762zm3.9882 1.5007c.5895 0 .6857.505.5936.83l-.2986 1.0415c-.2065.5655-.8984.7542-1.315.7542H78.367l.7491-2.6257zM67.7605 9.009L66.8233.0013h-2.065L58.5661 9.009h1.9941l1.1868-1.8781 4.06.0015.0785 1.8766zm-2.0101-3.228l-.1787-4.2805c-.0087-.2019.0303-.4641.0303-.4641l-.286.4656-2.7152 4.2801zM13.1817 7.507h2.5468c.6776 0 1.4626-.5482 1.7298-1.4788l.9161-3.196c.2303-.7998-.4444-1.3185-.8569-1.3175l-2.5913.005c-.7186.0015-1.4934.5988-1.6949 1.3007l-.8715 3.0356c-.3269 1.1397.329 1.651.8219 1.651zM15.116.013h2.5295c1.321 0 2.8671 1.203 2.4308 2.7265l-1.0897 3.8033c-.4226 1.4738-2.0239 2.4662-3.5133 2.4662h-1.987c-1.8964 0-3.3474-1.3655-2.8342-3.153l.996-3.4733C12.071.9099 13.6327.013 15.1163.013" fill-rule="evenodd" fill="#1a3171"/></svg>